<svg xmlns="http://www.w3.org/2000/svg" fill="none" viewBox="0 0 1280 1280"><g clip-path="url(#a)"><mask id="b" width="1280" height="1280" x="0" y="0" maskUnits="userSpaceOnUse" style="mask-type:luminance"><rect width="1280" height="1280" fill="#fff" rx="320"/></mask><g mask="url(#b)"><mask id="c" width="1280" height="1280" x="0" y="0" maskUnits="userSpaceOnUse" style="mask-type:luminance"><path fill="#fff" d="M0 0h1280v1280H0z"/></mask><g mask="url(#c)"><path fill="url(#d)" d="M0 0h1280v1280H0z"/><path fill="url(#e)" d="M1199.26 471.511c-503.063 263.804-1155.42 109.918-1418.715 0L-415 1827.85l1899.46 58.4c114.54-581.5 217.86-1678.542-285.2-1414.739"/><path fill="url(#f)" d="M537.254 526.625C237.963 823.429-7.824 644.918-93.306 518.561L43.683 1343.06l844.935-96.03 313.332-621.651c-96.86-156.587-365.406-395.559-664.696-98.754"/><path fill="url(#g)" d="M639.375 695C104.875 1075-166.25 732.5-235 513.75l-280 1158.13 2091.88 324.37L1680 883.75C1555.84 662.5 1173.88 315 639.375 695"/><path fill="url(#h)" d="M-135.625 699.044c-207.055-117.824-129.049-7.405-267.429 67.211l-60.696 577.795 2263.52-64.85c77.68-196.51 162.28-607.172-120.82-677.805-353.87-88.289-85.01 405.495-403.95 22.646-161.18-193.47-380.625 432.499-650.222 161.344-361.727-363.824-501.584 60.939-760.403-86.341"/><path fill="url(#i)" d="M521.789 887.509c428.976 172.431 887.291-64.678 1062.821-204.786l113.07 706.337-1542.599 612.63-726.61-809.09C-385.83 1019.05 92.813 715.076 521.789 887.509"/></g></g><g clip-path="url(#j)"><path fill="url(#k)" d="M162 640c0-263.992 214.008-478 478-478s478 214.008 478 478-214.008 478-478 478-478-214.008-478-478"/><path fill="url(#l)" d="M876.412 577.005C613.086 578.152 399.392 786.997 390 1047.47c72.747 44.69 158.382 70.53 250.056 70.53C904.018 1118 1118 904.279 1118 640.639c0-.354-.03-.702-.03-1.057-71.38-40.129-153.789-62.959-241.558-62.577"/><path fill="url(#m)" d="M372.75 579.005c-75.441.33-146.797 17.848-210.427 48.791-.112 4.25-.323 8.485-.323 12.763 0 172.323 90.962 323.312 227.32 407.441 6.096-169.739 98.522-317.516 234.68-400.412-73.504-43.898-159.46-68.984-251.25-68.583"/><path stroke="#334263" stroke-linecap="round" stroke-linejoin="round" stroke-miterlimit="10" stroke-width="64" d="M388.875 1049.07c-137.283-84.463-228.864-236.055-228.864-409.066 0-4.296.213-8.547.324-12.815 64.063-31.066 135.905-48.654 211.857-48.986 92.415-.403 178.955 24.785 252.959 68.857-137.084 83.228-230.138 231.594-236.276 402.01m0 0c9.434-261.903 224.043-471.898 488.496-473.052 88.145-.383 170.909 22.571 242.589 62.923.01.356.04.707.04 1.063C1120 905.096 905.096 1120 640.004 1120c-92.068 0-178.069-25.98-251.129-70.93M160 639.992C160 374.9 374.9 160 639.992 160s479.988 214.9 479.988 479.992-214.894 479.988-479.988 479.988S160 905.086 160 639.992"/></g></g><defs><linearGradient id="e" x1="-116.875" x2="1153.44" y1="1992.5" y2="444.239" gradientUnits="userSpaceOnUse"><stop stop-color="#e4e6f2"/><stop offset="1" stop-color="#eeeff8"/></linearGradient><linearGradient id="f" x1="439.375" x2="843.498" y1="839.374" y2="425.364" gradientUnits="userSpaceOnUse"><stop stop-color="#dee0ef"/><stop offset="1" stop-color="#eeeff8"/></linearGradient><linearGradient id="g" x1="898.75" x2="-235.205" y1="740.625" y2="1999.21" gradientUnits="userSpaceOnUse"><stop stop-color="#e2e5f5"/><stop offset="1" stop-color="#eeeff8"/></linearGradient><linearGradient id="h" x1="-51.25" x2="995.913" y1="1798.75" y2="732.773" gradientUnits="userSpaceOnUse"><stop stop-color="#d0d4f1"/><stop offset="1" stop-color="#eeeff8"/></linearGradient><linearGradient id="i" x1="255.625" x2="640.041" y1="1401.87" y2="1226.64" gradientUnits="userSpaceOnUse"><stop stop-color="#e4e6f2"/><stop offset="1" stop-color="#f1f2fa"/></linearGradient><linearGradient id="k" x1="190" x2="1090" y1="640" y2="640" gradientUnits="userSpaceOnUse"><stop stop-color="#a4b2d0"/><stop offset=".667" stop-color="#e4e8f6"/></linearGradient><linearGradient id="l" x1="412.3" x2="1357.5" y1="1076.5" y2="1076.5" gradientUnits="userSpaceOnUse"><stop stop-color="#a4b2d0"/><stop offset=".667" stop-color="#e4e8f6"/></linearGradient><linearGradient id="m" x1="-104.2" x2="841" y1="1079" y2="1079" gradientUnits="userSpaceOnUse"><stop stop-color="#a4b2d0"/><stop offset=".667" stop-color="#e4e8f6"/></linearGradient><clipPath id="a"><path fill="#fff" d="M0 0h1280v1280H0z"/></clipPath><clipPath id="j"><path fill="#fff" d="M128 128h1024v1024H128z"/></clipPath><radialGradient id="d" cx="0" cy="0" r="1" gradientTransform="translate(640 1280)scale(1280)" gradientUnits="userSpaceOnUse"><stop offset=".4" stop-color="#f6f9ff"/><stop offset=".98" stop-color="#e9ecfa"/></radialGradient></defs></svg>